<?xml version="1.0" encoding="UTF-8"?>
<svg id="Capa_2" data-name="Capa 2" xmlns="http://www.w3.org/2000/svg" viewBox="0 0 515.31 125.42">
  <defs>
    <style>
      .cls-1 {
        fill: #fff;
      }

      .cls-2 {
        fill: #2e3192;
      }

      .cls-3 {
        fill: #c6effb;
      }
    </style>
  </defs>
  <g id="Camada_1" data-name="Camada 1">
    <g>
      <path class="cls-2" d="m146.45,62.71c0,1.27-.36,2.55-1.09,3.66l-32.04,48.73c-2.91,4.43.27,10.32,5.57,10.32h29.35c2.24,0,4.33-1.13,5.57-3l36.85-56.05c.73-1.11,1.09-2.38,1.09-3.66h-45.29Z"/>
      <path class="cls-3" d="m148.24,121.94h-29.35c-1.72,0-2.53-1.17-2.8-1.67-.27-.5-.8-1.83.14-3.26l.31.2c-.83,1.27-.37,2.44-.13,2.89.24.45.96,1.48,2.48,1.48h29.35c.95,0,1.83-.47,2.36-1.27l35.53-54.04.31.2-35.53,54.04c-.59.9-1.59,1.44-2.66,1.44Z"/>
      <path class="cls-3" d="m153.8,3c-1.23-1.87-3.32-3-5.57-3h-29.35c-5.3,0-8.48,5.89-5.57,10.32l32.04,48.73c.73,1.11,1.09,2.38,1.09,3.66h45.29c0-1.27-.36-2.55-1.09-3.66L153.8,3Z"/>
      <path class="cls-2" d="m186.12,59.15L150.59,5.11c-.52-.8-1.4-1.27-2.36-1.27h-29.35c-1.52,0-2.24,1.04-2.48,1.48-.24.45-.71,1.62.13,2.89l-.31.2c-.94-1.43-.41-2.76-.14-3.26.27-.5,1.09-1.67,2.8-1.67h29.35c1.08,0,2.07.54,2.66,1.44l35.53,54.04-.31.2Z"/>
      <rect x="146.45" y="62.53" width="45.29" height=".37"/>
      <path class="cls-2" d="m45.29,62.71c0,1.27.36,2.55,1.09,3.66l32.04,48.73c2.91,4.43-.27,10.32-5.57,10.32h-29.35c-2.24,0-4.33-1.13-5.57-3L1.1,66.37C.37,65.26,0,63.98,0,62.71h45.29Z"/>
      <path class="cls-3" d="m72.86,121.94h-29.35c-1.08,0-2.07-.54-2.66-1.44L5.32,66.47l.31-.2,35.53,54.04c.52.8,1.4,1.27,2.36,1.27h29.35c1.52,0,2.24-1.04,2.48-1.48.24-.45.71-1.62-.13-2.89l.31-.2c.94,1.43.41,2.76.14,3.26-.27.5-1.09,1.67-2.8,1.67Z"/>
      <path class="cls-3" d="m37.94,3c1.23-1.87,3.32-3,5.57-3h29.35c5.3,0,8.48,5.89,5.57,10.32l-32.04,48.73c-.73,1.11-1.09,2.38-1.09,3.66H0C0,61.44.37,60.16,1.1,59.05L37.94,3Z"/>
      <path class="cls-2" d="m5.63,59.15l-.31-.2L40.85,4.91c.59-.9,1.59-1.44,2.66-1.44h29.35c1.72,0,2.53,1.17,2.8,1.67.27.5.8,1.83-.14,3.26l-.31-.2c.83-1.27.37-2.44.13-2.89-.24-.45-.96-1.48-2.48-1.48h-29.35c-.95,0-1.83.48-2.36,1.27L5.63,59.15Z"/>
      <rect y="62.53" width="45.29" height=".37"/>
    </g>
    <g>
      <path class="cls-1" d="m237.76,55.56V15.76h16.46v40.76c0,14.06-8.04,19.61-22.2,19.61s-21.33-5.64-21.33-19.42V15.76h16.74v39.9c0,3.92,1.44,5.84,5.26,5.84s5.07-1.91,5.07-5.93Z"/>
      <path class="cls-1" d="m286.08,30.2v44.97h-16.36V30.2h-11.77l.96-14.45h39.23l-.96,14.45h-11.1Z"/>
      <path class="cls-1" d="m346.83,44.55c0,21.43-6.7,31.57-23.63,31.57s-23.25-10.33-23.25-30.9,6.7-30.42,23.54-30.42,23.34,9.28,23.34,29.75Zm-30.23.29v2.3c0,12.34,1.24,15.12,7.18,15.12,5.55,0,6.6-2.87,6.6-14.25v-3.06c0-11.29-1.05-15.02-7.18-15.02-5.74,0-6.6,3.92-6.6,14.92Z"/>
      <path class="cls-1" d="m369.41,55.75v19.42h-16.07V15.76h19.42c13.39,0,20.19,5.55,20.19,20.09s-6.51,19.9-19.13,19.9h-4.4Zm2.3-26.41h-2.3v15.12h2.68c3.64,0,4.4-2.1,4.4-7.46s-.86-7.65-4.78-7.65Z"/>
      <path class="cls-1" d="m398.68,75.17V15.76h16.26v59.41h-16.26Z"/>
      <path class="cls-1" d="m451.02,75.17l-1.82-9.38h-11.29l-1.82,9.38h-15.21l10.91-59.41h24.3l10.91,59.41h-15.98Zm-6.98-41.81h-.67l-3.35,21.24h7.37l-3.35-21.24Z"/>
      <path class="cls-1" d="m499.62,75.17l-12.34-27.65h-.77v27.65h-14.54V15.76h16.17l11.77,28.51h.77V15.76h14.64v59.41h-15.69Z"/>
    </g>
    <g>
      <path class="cls-3" d="m219.41,118.8v-23.58h6.59c1.93,0,3.67.44,5.2,1.32,1.53.88,2.73,2.14,3.59,3.78.86,1.64,1.29,3.51,1.29,5.6v2.17c0,2.11-.43,3.97-1.28,5.6-.85,1.63-2.05,2.89-3.6,3.77-1.55.89-3.33,1.33-5.34,1.33h-6.45Zm1.99-21.9v20.21h4.47c2.48,0,4.48-.82,5.98-2.47,1.5-1.65,2.25-3.88,2.25-6.69v-2.08c0-2.71-.74-4.88-2.22-6.52-1.48-1.63-3.43-2.45-5.85-2.46h-4.63Z"/>
      <path class="cls-3" d="m264.77,107.5h-11.03v9.62h12.68v1.68h-14.67v-23.58h14.59v1.68h-12.6v8.91h11.03v1.68Z"/>
      <path class="cls-3" d="m288.34,115.89l.13.5.15-.5,7.42-20.67h2.19l-8.78,23.58h-1.91l-8.78-23.58h2.17l7.42,20.67Z"/>
      <path class="cls-3" d="m325.33,107.5h-11.03v9.62h12.68v1.68h-14.67v-23.58h14.59v1.68h-12.6v8.91h11.03v1.68Z"/>
      <path class="cls-3" d="m343.8,117.12h11.65v1.68h-13.65v-23.58h2.01v21.9Z"/>
      <path class="cls-3" d="m386.25,108.29c0,2.17-.38,4.08-1.13,5.72-.75,1.64-1.82,2.9-3.22,3.79-1.39.88-3,1.33-4.83,1.33-2.75,0-4.98-.99-6.67-2.96s-2.54-4.63-2.54-7.98v-2.43c0-2.15.38-4.05,1.14-5.71s1.84-2.93,3.23-3.82c1.39-.89,3-1.34,4.81-1.34s3.41.44,4.8,1.31c1.39.87,2.46,2.11,3.22,3.71.76,1.6,1.15,3.45,1.18,5.56v2.82Zm-1.99-2.56c0-2.84-.64-5.06-1.93-6.67-1.29-1.61-3.04-2.41-5.28-2.41s-3.94.81-5.24,2.42c-1.3,1.61-1.95,3.87-1.95,6.76v2.46c0,2.8.65,5.01,1.94,6.65s3.06,2.45,5.28,2.45,4.02-.81,5.28-2.42c1.26-1.61,1.9-3.86,1.9-6.75v-2.49Z"/>
      <path class="cls-3" d="m403.88,109.2v9.6h-1.99v-23.58h8.03c2.45,0,4.39.63,5.81,1.88s2.13,2.97,2.13,5.17-.68,3.92-2.05,5.13c-1.37,1.2-3.34,1.81-5.94,1.81h-5.99Zm0-1.68h6.04c1.93,0,3.41-.46,4.42-1.38,1.01-.92,1.52-2.2,1.52-3.84s-.5-2.93-1.51-3.9-2.44-1.46-4.3-1.48h-6.17v10.61Z"/>
      <path class="cls-3" d="m445.95,107.5h-11.03v9.62h12.68v1.68h-14.67v-23.58h14.59v1.68h-12.6v8.91h11.03v1.68Z"/>
      <path class="cls-3" d="m471.23,108.97h-6.85v9.83h-2.01v-23.58h7.66c2.52,0,4.48.61,5.9,1.83,1.42,1.22,2.12,2.92,2.12,5.11,0,1.51-.44,2.84-1.33,4s-2.07,1.95-3.56,2.39l5.9,10.04v.21h-2.12l-5.7-9.83Zm-6.85-1.68h6.11c1.67,0,3.02-.48,4.03-1.43,1.02-.95,1.52-2.18,1.52-3.7,0-1.67-.53-2.96-1.59-3.88s-2.54-1.38-4.45-1.38h-5.62v10.38Z"/>
      <path class="cls-3" d="m507.43,113.01c0-1.31-.46-2.34-1.38-3.1-.92-.76-2.6-1.48-5.04-2.17-2.44-.69-4.22-1.43-5.35-2.24-1.6-1.14-2.4-2.65-2.4-4.5s.74-3.27,2.23-4.4c1.48-1.13,3.38-1.69,5.69-1.69,1.57,0,2.97.3,4.2.91s2.19,1.45,2.88,2.53c.68,1.08,1.02,2.28,1.02,3.61h-2.01c0-1.61-.55-2.91-1.65-3.89-1.1-.98-2.58-1.47-4.44-1.47s-3.24.4-4.31,1.21-1.6,1.86-1.6,3.16c0,1.2.48,2.18,1.44,2.94s2.5,1.42,4.62,2c2.12.58,3.72,1.18,4.81,1.8s1.91,1.36,2.46,2.23c.55.86.83,1.88.83,3.06,0,1.86-.74,3.35-2.23,4.47-1.49,1.12-3.44,1.68-5.87,1.68-1.66,0-3.19-.3-4.58-.89-1.39-.59-2.44-1.42-3.16-2.49-.72-1.07-1.08-2.29-1.08-3.68h1.99c0,1.66.62,2.98,1.86,3.94,1.24.96,2.89,1.44,4.96,1.44,1.84,0,3.31-.41,4.42-1.21s1.67-1.88,1.67-3.22Z"/>
    </g>
  </g>
</svg>