<?xml version="1.0" encoding="UTF-8"?>
<svg id="Capa_2" data-name="Capa 2" xmlns="http://www.w3.org/2000/svg" viewBox="0 0 163.62 91.61">
  <defs>
    <style>
      .cls-1 {
        letter-spacing: .32em;
      }

      .cls-2 {
        fill: #fff;
        font-family: PassionOne-Regular, Passion;
        font-size: 32px;
      }

      .cls-3 {
        letter-spacing: .29em;
      }

      .cls-4 {
        fill: #c6effb;
        font-family: Roboto-Light, Roboto;
        font-size: 11.62px;
        font-weight: 300;
      }

      .cls-5 {
        fill: #00a8f7;
      }

      .cls-6 {
        letter-spacing: .32em;
      }
    </style>
  </defs>
  <g id="Capa_1-2" data-name="Capa 1">
    <g>
      <path class="cls-5" d="m30.15,91.61c-.47,0-.96-.12-1.4-.38-8.15-4.78-13.02-12.56-13.02-20.81v-11.67c0-2.09-1.42-4.05-3.8-5.24l-10.41-5.24c-.93-.47-1.52-1.42-1.52-2.47s.59-2,1.52-2.47l10.41-5.24c2.38-1.19,3.8-3.16,3.8-5.24v-11.67C15.73,12.94,20.6,5.16,28.75.38c1.32-.77,3.01-.33,3.78.98.77,1.32.33,3.01-.98,3.78-6.44,3.78-10.29,9.78-10.29,16.04v11.67c0,4.16-2.62,8.06-6.84,10.18l-5.5,2.77,5.5,2.77c4.22,2.12,6.84,6.02,6.84,10.18v11.67c0,6.27,3.85,12.26,10.29,16.04,1.32.77,1.76,2.47.98,3.78-.51.88-1.44,1.37-2.39,1.37Z"/>
      <path class="cls-5" d="m133.48,91.61c-.95,0-1.87-.49-2.39-1.37-.77-1.32-.33-3.01.98-3.78,6.44-3.78,10.29-9.78,10.29-16.04v-11.67c0-4.16,2.62-8.06,6.84-10.18l5.5-2.77-5.5-2.77c-4.22-2.12-6.84-6.02-6.84-10.18v-11.67c0-6.27-3.85-12.26-10.29-16.04-1.32-.77-1.76-2.47-.98-3.78.77-1.32,2.46-1.76,3.78-.99,8.15,4.78,13.02,12.56,13.02,20.81v11.67c0,2.09,1.42,4.05,3.8,5.24l10.41,5.24c.93.47,1.52,1.42,1.52,2.47s-.59,2-1.52,2.47l-10.41,5.24c-2.38,1.2-3.8,3.16-3.8,5.24v11.67c0,8.25-4.87,16.03-13.02,20.81-.44.26-.92.38-1.4.38Z"/>
      <g>
        <text class="cls-2" transform="translate(22.84 49.19)"><tspan x="0" y="0">UTOPIANS</tspan></text>
        <text class="cls-4" transform="translate(28.64 65.21)"><tspan class="cls-1" x="0" y="0">DEVE</tspan><tspan class="cls-3" x="42.85" y="0">L</tspan><tspan class="cls-6" x="52.32" y="0">OPERS</tspan></text>
      </g>
    </g>
  </g>
</svg>